<svg version="1.1" viewBox="0.0 0.0 755.9055118110236 113.38582677165354" fill="none" stroke="none" stroke-linecap="square" stroke-miterlimit="10" xmlns:xlink="http://www.w3.org/1999/xlink" xmlns="http://www.w3.org/2000/svg"><clipPath id="g364c94df95c_0_5.0"><path d="m0 0l755.9055 0l0 113.385826l-755.9055 0l0 -113.385826z" clip-rule="nonzero"/></clipPath><g clip-path="url(#g364c94df95c_0_5.0)"><path fill="#95cc50" d="m7.8309402 20.189331l0 0c0 -10.080485 8.171848 -18.252333 18.252333 -18.252333l703.7473 0c4.8408203 0 9.483398 1.9230082 12.906372 5.3459845c3.4229736 3.422977 5.3459473 8.065529 5.3459473 12.906349l0 73.00714c0 10.08049 -8.171814 18.252335 -18.25232 18.252335l-703.7473 0c-10.080484 0 -18.252333 -8.1718445 -18.252333 -18.252335z" fill-rule="evenodd"/><path fill="#6aa84f" d="m2.8346457 1.9369977l750.2362 0l0 109.51181l-750.2362 0z" fill-rule="evenodd"/><path fill="#eeeeee" d="m330.22437 81.2422q-3.96875 -0.828125 -11.640625 -0.828125q-7.65625 0 -10.984375 0.265625q-3.328125 0.265625 -3.875 0.265625q-2.9375 0 -2.9375 -2.703125q0 -1.875 3.09375 -2.5625q1.0625 -0.234375 2.53125 -0.234375l2.734375 0l0 -40.34375l-3.328125 0q-1.671875 0 -2.671875 -0.71875q-1.0 -0.734375 -1.0 -1.921875q0 -1.1874981 0.84375 -1.9218731q0.859375 -0.734375 2.34375 -0.734375l6.90625 0.21875l6.484375 -0.21875q2.625 0 3.3125 1.609375q0.203125 0.453125 0.203125 0.9531231q0 2.734375 -4.1875 2.734375l-2.78125 0l0 40.453125q8.28125 0.515625 11.03125 0.515625q2.75 0 3.46875 -0.328125q1.9375 -0.78125 3.984375 -4.453125q2.0625 -3.671875 3.0625 -4.546875q1.015625 -0.890625 2.09375 -0.890625q2.203125 0 2.5 2.53125q0.03125 0.125 0.03125 0.71875q0 0.59375 -1.390625 2.484375q-1.375 1.890625 -2.625 4.8125q-1.25 2.90625 -1.703125 4.96875q-0.828125 3.625 -2.828125 3.625q-1.15625 0 -1.9375 -0.859375q-0.765625 -0.859375 -0.765625 -2.234375q0 -0.15625 0 -0.328125q0 -0.171875 0.03125 -0.328125zm20.003021 -17.21875q0 5.4375 3.109375 8.828125q3.109375 3.390625 7.90625 3.390625q4.796875 0 7.734375 -3.1875q2.953125 -3.1875 2.953125 -8.515625q0 -8.859375 -6.28125 -11.546875q-2.0625 -0.890625 -4.671875 -0.890625q-4.96875 0 -7.859375 3.25q-2.890625 3.234375 -2.890625 8.671875zm-5.71875 0.359375q0 -7.515625 4.78125 -12.5q4.78125 -4.984375 12.03125 -4.984375q7.265625 0 11.8125 4.625q4.5625 4.625 4.5625 12.34375q0 7.703125 -4.765625 12.640625q-4.75 4.9375 -12.140625 4.9375q-7.375 0 -11.828125 -4.765625q-4.453125 -4.78125 -4.453125 -12.296875zm64.45853 8.046875l0 -16.8125q0 -0.484375 0.0625 -0.953125q-3.390625 -2.6875 -7.96875 -2.6875q-4.5625 0 -7.859375 3.578125q-3.28125 3.578125 -3.28125 8.25q0 6.0625 2.984375 9.25q3.0 3.1875 7.859375 3.1875q4.875 0 8.203125 -3.8125zm1.484375 -22.796875q1.546875 -2.734375 4.5625 -2.734375q3.03125 0 3.03125 2.859375q0 1.390625 -1.328125 2.265625q-1.328125 0.859375 -1.6875 2.421875q-0.34375 1.5625 -0.34375 5.96875l0 20.234375q0 8.125 -4.046875 12.875q-4.03125 4.75 -10.78125 4.75q-5.53125 0 -8.75 -2.4375q-3.21875 -2.421875 -3.21875 -6.015625q0 -2.5625 1.375 -4.328125q1.390625 -1.75 3.5625 -1.75q1.28125 0 2.34375 0.84375q1.0625 0.859375 1.0625 1.84375q0 1.0 -0.328125 1.421875q-0.328125 0.421875 -0.703125 0.78125q-0.375 0.375 -0.84375 0.6875q-0.453125 0.3125 -0.453125 0.828125q0 1.21875 1.421875 2.0q1.4375 0.796875 4.03125 0.796875q4.703125 0 7.15625 -3.109375q2.453125 -3.109375 2.453125 -8.765625l0 -2.921875q-3.65625 3.296875 -8.75 3.296875q-6.765625 0 -11.40625 -4.578125q-4.640625 -4.578125 -4.640625 -12.375q0 -7.8125 4.921875 -12.703125q4.9375 -4.890625 12.546875 -4.890625q3.875 0 7.0 1.546875q1.015625 0.5 1.8125 1.1875zm18.317932 14.390625q0 5.4375 3.109375 8.828125q3.109375 3.390625 7.90625 3.390625q4.796875 0 7.734375 -3.1875q2.953125 -3.1875 2.953125 -8.515625q0 -8.859375 -6.28125 -11.546875q-2.0625 -0.890625 -4.671875 -0.890625q-4.96875 0 -7.859375 3.25q-2.890625 3.234375 -2.890625 8.671875zm-5.71875 0.359375q0 -7.515625 4.78125 -12.5q4.78125 -4.984375 12.03125 -4.984375q7.265625 0 11.8125 4.625q4.5625 4.625 4.5625 12.34375q0 7.703125 -4.765625 12.640625q-4.75 4.9375 -12.140625 4.9375q-7.375 0 -11.828125 -4.765625q-4.453125 -4.78125 -4.453125 -12.296875z" fill-rule="nonzero"/></g></svg>